<svg width="118" height="25" viewBox="0 0 118 25" fill="none" xmlns="http://www.w3.org/2000/svg">
<path d="M2.55254 24V14.07H0.422539V11.58H2.55254V6.33C2.55254 4.53 2.95254 3.15 3.75254 2.19C4.57254 1.23 5.77254 0.749999 7.35254 0.749999C7.77254 0.749999 8.23254 0.809999 8.73254 0.929998C9.25254 1.05 9.70254 1.25 10.0825 1.53L8.91254 3.54C8.73254 3.36 8.53254 3.24 8.31254 3.18C8.09254 3.1 7.87254 3.06 7.65254 3.06C6.91254 3.06 6.34254 3.31 5.94254 3.81C5.54254 4.31 5.34254 5.16 5.34254 6.36V11.58H9.27254V14.07H5.34254V24H2.55254ZM15.3897 11.58L15.6597 15.18L15.5097 14.7C15.8297 13.94 16.2897 13.3 16.8897 12.78C17.5097 12.24 18.1497 11.83 18.8097 11.55C19.4897 11.25 20.0797 11.1 20.5797 11.1L20.4297 13.86C19.4897 13.8 18.6597 13.98 17.9397 14.4C17.2397 14.82 16.6797 15.38 16.2597 16.08C15.8597 16.78 15.6597 17.53 15.6597 18.33V24H12.8997V11.58H15.3897ZM22.5717 17.67C22.5717 16.43 22.8617 15.31 23.4417 14.31C24.0417 13.31 24.8617 12.52 25.9017 11.94C26.9417 11.36 28.1217 11.07 29.4417 11.07C30.8017 11.07 31.9917 11.36 33.0117 11.94C34.0317 12.52 34.8217 13.31 35.3817 14.31C35.9417 15.31 36.2217 16.43 36.2217 17.67C36.2217 18.91 35.9417 20.04 35.3817 21.06C34.8217 22.06 34.0217 22.85 32.9817 23.43C31.9617 24.01 30.7717 24.3 29.4117 24.3C28.0917 24.3 26.9117 24.03 25.8717 23.49C24.8517 22.93 24.0417 22.16 23.4417 21.18C22.8617 20.18 22.5717 19.01 22.5717 17.67ZM25.3617 17.7C25.3617 18.5 25.5417 19.23 25.9017 19.89C26.2617 20.53 26.7417 21.04 27.3417 21.42C27.9617 21.8 28.6417 21.99 29.3817 21.99C30.1617 21.99 30.8517 21.8 31.4517 21.42C32.0717 21.04 32.5517 20.53 32.8917 19.89C33.2317 19.23 33.4017 18.5 33.4017 17.7C33.4017 16.9 33.2317 16.18 32.8917 15.54C32.5517 14.88 32.0717 14.36 31.4517 13.98C30.8517 13.58 30.1617 13.38 29.3817 13.38C28.6217 13.38 27.9317 13.58 27.3117 13.98C26.7117 14.38 26.2317 14.91 25.8717 15.57C25.5317 16.21 25.3617 16.92 25.3617 17.7ZM42.4893 11.58L42.7293 14.37L42.6093 14.13C43.0693 13.19 43.7193 12.45 44.5593 11.91C45.4193 11.37 46.3993 11.1 47.4993 11.1C48.1993 11.1 48.8193 11.21 49.3593 11.43C49.8993 11.65 50.3393 11.97 50.6793 12.39C51.0393 12.79 51.2693 13.29 51.3693 13.89L51.2193 13.98C51.6993 13.08 52.3593 12.38 53.1993 11.88C54.0593 11.36 54.9593 11.1 55.8993 11.1C57.1193 11.1 58.0793 11.45 58.7793 12.15C59.4993 12.83 59.8693 13.72 59.8893 14.82V24H57.0993V15.81C57.0793 15.17 56.9193 14.64 56.6193 14.22C56.3393 13.78 55.8393 13.54 55.1193 13.5C54.3993 13.5 53.7493 13.72 53.1693 14.16C52.6093 14.6 52.1693 15.17 51.8493 15.87C51.5293 16.55 51.3593 17.29 51.3393 18.09V24H48.5493V15.81C48.5293 15.17 48.3593 14.64 48.0393 14.22C47.7393 13.78 47.2293 13.54 46.5093 13.5C45.7693 13.5 45.1193 13.72 44.5593 14.16C43.9993 14.6 43.5593 15.17 43.2393 15.87C42.9393 16.57 42.7893 17.32 42.7893 18.12V24H39.9993V11.58H42.4893ZM65.8952 13.86C65.2752 13.86 64.7452 13.67 64.3052 13.29C63.8652 12.91 63.6452 12.34 63.6452 11.58V10.41H65.7752V10.8C65.7752 11.12 65.8552 11.33 66.0152 11.43C66.1752 11.53 66.4352 11.58 66.7952 11.58H74.7452L67.3052 22.29L66.7652 21.69H74.6552V24H63.1652L70.7552 13.08L71.2352 13.86H65.8952ZM84.4019 24.3C82.9819 24.3 81.7619 24.02 80.7419 23.46C79.7219 22.88 78.9319 22.1 78.3719 21.12C77.8319 20.12 77.5619 18.98 77.5619 17.7C77.5619 16.48 77.8719 15.37 78.4919 14.37C79.1119 13.37 79.9419 12.57 80.9819 11.97C82.0219 11.37 83.1819 11.07 84.4619 11.07C86.1019 11.07 87.4619 11.55 88.5419 12.51C89.6219 13.47 90.3519 14.79 90.7319 16.47L80.5019 20.07L79.8419 18.42L88.2419 15.36L87.6419 15.75C87.4019 15.09 87.0019 14.52 86.4419 14.04C85.8819 13.54 85.1519 13.29 84.2519 13.29C83.4919 13.29 82.8119 13.48 82.2119 13.86C81.6119 14.22 81.1419 14.72 80.8019 15.36C80.4619 16 80.2919 16.73 80.2919 17.55C80.2919 18.41 80.4719 19.17 80.8319 19.83C81.1919 20.47 81.6819 20.98 82.3019 21.36C82.9419 21.72 83.6619 21.9 84.4619 21.9C85.0019 21.9 85.5219 21.8 86.0219 21.6C86.5419 21.4 87.0219 21.14 87.4619 20.82L88.7519 22.89C88.1319 23.31 87.4319 23.65 86.6519 23.91C85.8919 24.17 85.1419 24.3 84.4019 24.3ZM96.7179 11.58L96.9879 15.18L96.8379 14.7C97.1579 13.94 97.6179 13.3 98.2179 12.78C98.8379 12.24 99.4779 11.83 100.138 11.55C100.818 11.25 101.408 11.1 101.908 11.1L101.758 13.86C100.818 13.8 99.9879 13.98 99.2679 14.4C98.5679 14.82 98.0079 15.38 97.5879 16.08C97.1879 16.78 96.9879 17.53 96.9879 18.33V24H94.2279V11.58H96.7179ZM103.9 17.67C103.9 16.43 104.19 15.31 104.77 14.31C105.37 13.31 106.19 12.52 107.23 11.94C108.27 11.36 109.45 11.07 110.77 11.07C112.13 11.07 113.32 11.36 114.34 11.94C115.36 12.52 116.15 13.31 116.71 14.31C117.27 15.31 117.55 16.43 117.55 17.67C117.55 18.91 117.27 20.04 116.71 21.06C116.15 22.06 115.35 22.85 114.31 23.43C113.29 24.01 112.1 24.3 110.74 24.3C109.42 24.3 108.24 24.03 107.2 23.49C106.18 22.93 105.37 22.16 104.77 21.18C104.19 20.18 103.9 19.01 103.9 17.67ZM106.69 17.7C106.69 18.5 106.87 19.23 107.23 19.89C107.59 20.53 108.07 21.04 108.67 21.42C109.29 21.8 109.97 21.99 110.71 21.99C111.49 21.99 112.18 21.8 112.78 21.42C113.4 21.04 113.88 20.53 114.22 19.89C114.56 19.23 114.73 18.5 114.73 17.7C114.73 16.9 114.56 16.18 114.22 15.54C113.88 14.88 113.4 14.36 112.78 13.98C112.18 13.58 111.49 13.38 110.71 13.38C109.95 13.38 109.26 13.58 108.64 13.98C108.04 14.38 107.56 14.91 107.2 15.57C106.86 16.21 106.69 16.92 106.69 17.7Z" fill="gray"/>
</svg>
