<svg width="160" height="31" viewBox="0 0 160 31" fill="none" xmlns="http://www.w3.org/2000/svg">
<path d="M2.45 24V14.07H0.32V11.58H2.45V6.33C2.45 4.53 2.85 3.15 3.65 2.19C4.47 1.23 5.67 0.749999 7.25 0.749999C7.67 0.749999 8.13 0.809999 8.63 0.929998C9.15 1.05 9.6 1.25 9.98 1.53L8.81 3.54C8.63 3.36 8.43 3.24 8.21 3.18C7.99 3.1 7.77 3.06 7.55 3.06C6.81 3.06 6.24 3.31 5.84 3.81C5.44 4.31 5.24 5.16 5.24 6.36V11.58H9.17V14.07H5.24V24H2.45ZM11.0434 17.67C11.0434 16.43 11.3334 15.31 11.9134 14.31C12.5134 13.31 13.3334 12.52 14.3734 11.94C15.4134 11.36 16.5934 11.07 17.9134 11.07C19.2734 11.07 20.4634 11.36 21.4834 11.94C22.5034 12.52 23.2934 13.31 23.8534 14.31C24.4134 15.31 24.6934 16.43 24.6934 17.67C24.6934 18.91 24.4134 20.04 23.8534 21.06C23.2934 22.06 22.4934 22.85 21.4534 23.43C20.4334 24.01 19.2434 24.3 17.8834 24.3C16.5634 24.3 15.3834 24.03 14.3434 23.49C13.3234 22.93 12.5134 22.16 11.9134 21.18C11.3334 20.18 11.0434 19.01 11.0434 17.67ZM13.8334 17.7C13.8334 18.5 14.0134 19.23 14.3734 19.89C14.7334 20.53 15.2134 21.04 15.8134 21.42C16.4334 21.8 17.1134 21.99 17.8534 21.99C18.6334 21.99 19.3234 21.8 19.9234 21.42C20.5434 21.04 21.0234 20.53 21.3634 19.89C21.7034 19.23 21.8734 18.5 21.8734 17.7C21.8734 16.9 21.7034 16.18 21.3634 15.54C21.0234 14.88 20.5434 14.36 19.9234 13.98C19.3234 13.58 18.6334 13.38 17.8534 13.38C17.0934 13.38 16.4034 13.58 15.7834 13.98C15.1834 14.38 14.7034 14.91 14.3434 15.57C14.0034 16.21 13.8334 16.92 13.8334 17.7ZM34.441 30.15C33.521 30.15 32.711 30.04 32.011 29.82C31.311 29.62 30.671 29.33 30.091 28.95C29.531 28.57 28.991 28.14 28.471 27.66L30.091 25.77C30.751 26.39 31.421 26.87 32.101 27.21C32.781 27.55 33.541 27.72 34.381 27.72C35.321 27.72 36.111 27.56 36.751 27.24C37.411 26.94 37.911 26.51 38.251 25.95C38.591 25.41 38.761 24.78 38.761 24.06L38.791 20.7L39.031 21.24C38.671 22.1 38.021 22.83 37.081 23.43C36.141 24.01 35.001 24.3 33.661 24.3C32.521 24.3 31.471 24.01 30.511 23.43C29.571 22.85 28.811 22.07 28.231 21.09C27.671 20.09 27.391 18.97 27.391 17.73C27.391 16.43 27.691 15.29 28.291 14.31C28.891 13.31 29.681 12.52 30.661 11.94C31.641 11.36 32.711 11.07 33.871 11.07C34.971 11.07 35.971 11.3 36.871 11.76C37.791 12.2 38.461 12.77 38.881 13.47L38.731 13.98L39.031 11.58H41.581V24.09C41.581 25.21 41.291 26.23 40.711 27.15C40.131 28.07 39.311 28.8 38.251 29.34C37.191 29.88 35.921 30.15 34.441 30.15ZM30.181 17.67C30.181 18.47 30.371 19.2 30.751 19.86C31.131 20.52 31.641 21.04 32.281 21.42C32.941 21.8 33.671 21.99 34.471 21.99C35.211 21.99 35.871 21.86 36.451 21.6C37.051 21.32 37.551 20.95 37.951 20.49C38.351 20.01 38.631 19.46 38.791 18.84V16.38C38.611 15.78 38.311 15.26 37.891 14.82C37.471 14.36 36.971 14.01 36.391 13.77C35.811 13.51 35.171 13.38 34.471 13.38C33.671 13.38 32.941 13.56 32.281 13.92C31.641 14.28 31.131 14.79 30.751 15.45C30.371 16.09 30.181 16.83 30.181 17.67ZM52.3707 30.15C51.4507 30.15 50.6407 30.04 49.9407 29.82C49.2407 29.62 48.6007 29.33 48.0207 28.95C47.4607 28.57 46.9207 28.14 46.4007 27.66L48.0207 25.77C48.6807 26.39 49.3507 26.87 50.0307 27.21C50.7107 27.55 51.4707 27.72 52.3107 27.72C53.2507 27.72 54.0407 27.56 54.6807 27.24C55.3407 26.94 55.8407 26.51 56.1807 25.95C56.5207 25.41 56.6907 24.78 56.6907 24.06L56.7207 20.7L56.9607 21.24C56.6007 22.1 55.9507 22.83 55.0107 23.43C54.0707 24.01 52.9307 24.3 51.5907 24.3C50.4507 24.3 49.4007 24.01 48.4407 23.43C47.5007 22.85 46.7407 22.07 46.1607 21.09C45.6007 20.09 45.3207 18.97 45.3207 17.73C45.3207 16.43 45.6207 15.29 46.2207 14.31C46.8207 13.31 47.6107 12.52 48.5907 11.94C49.5707 11.36 50.6407 11.07 51.8007 11.07C52.9007 11.07 53.9007 11.3 54.8007 11.76C55.7207 12.2 56.3907 12.77 56.8107 13.47L56.6607 13.98L56.9607 11.58H59.5107V24.09C59.5107 25.21 59.2207 26.23 58.6407 27.15C58.0607 28.07 57.2407 28.8 56.1807 29.34C55.1207 29.88 53.8507 30.15 52.3707 30.15ZM48.1107 17.67C48.1107 18.47 48.3007 19.2 48.6807 19.86C49.0607 20.52 49.5707 21.04 50.2107 21.42C50.8707 21.8 51.6007 21.99 52.4007 21.99C53.1407 21.99 53.8007 21.86 54.3807 21.6C54.9807 21.32 55.4807 20.95 55.8807 20.49C56.2807 20.01 56.5607 19.46 56.7207 18.84V16.38C56.5407 15.78 56.2407 15.26 55.8207 14.82C55.4007 14.36 54.9007 14.01 54.3207 13.77C53.7407 13.51 53.1007 13.38 52.4007 13.38C51.6007 13.38 50.8707 13.56 50.2107 13.92C49.5707 14.28 49.0607 14.79 48.6807 15.45C48.3007 16.09 48.1107 16.83 48.1107 17.67ZM65.3804 29.97L73.5704 11.58H76.1504L68.1404 29.97H65.3804ZM68.4404 24.09L62.4704 11.58H65.6204L70.6304 22.68L68.4404 24.09ZM96.2068 24.3C95.0668 24.3 94.0568 24.05 93.1768 23.55C92.3168 23.05 91.6268 22.42 91.1068 21.66L91.4368 20.79V24H88.6468V0.779999H91.4068V14.43L91.3168 13.38C91.8168 12.7 92.5268 12.15 93.4468 11.73C94.3868 11.29 95.4268 11.07 96.5668 11.07C97.6868 11.07 98.7068 11.34 99.6268 11.88C100.547 12.42 101.277 13.18 101.817 14.16C102.377 15.12 102.657 16.27 102.657 17.61C102.657 19.01 102.357 20.21 101.757 21.21C101.177 22.21 100.397 22.98 99.4168 23.52C98.4368 24.04 97.3668 24.3 96.2068 24.3ZM95.6368 21.93C96.4368 21.93 97.1568 21.74 97.7968 21.36C98.4368 20.98 98.9368 20.47 99.2968 19.83C99.6568 19.17 99.8368 18.42 99.8368 17.58C99.8368 16.78 99.6468 16.06 99.2668 15.42C98.9068 14.76 98.4068 14.24 97.7668 13.86C97.1468 13.48 96.4368 13.29 95.6368 13.29C94.9568 13.29 94.3268 13.42 93.7468 13.68C93.1668 13.94 92.6768 14.3 92.2768 14.76C91.8768 15.2 91.5968 15.72 91.4368 16.32V18.81C91.5968 19.41 91.8668 19.95 92.2468 20.43C92.6268 20.89 93.1068 21.26 93.6868 21.54C94.2668 21.8 94.9168 21.93 95.6368 21.93ZM112.19 24.3C110.77 24.3 109.55 24.02 108.53 23.46C107.51 22.88 106.72 22.1 106.16 21.12C105.62 20.12 105.35 18.98 105.35 17.7C105.35 16.48 105.66 15.37 106.28 14.37C106.9 13.37 107.73 12.57 108.77 11.97C109.81 11.37 110.97 11.07 112.25 11.07C113.89 11.07 115.25 11.55 116.33 12.51C117.41 13.47 118.14 14.79 118.52 16.47L108.29 20.07L107.63 18.42L116.03 15.36L115.43 15.75C115.19 15.09 114.79 14.52 114.23 14.04C113.67 13.54 112.94 13.29 112.04 13.29C111.28 13.29 110.6 13.48 110 13.86C109.4 14.22 108.93 14.72 108.59 15.36C108.25 16 108.08 16.73 108.08 17.55C108.08 18.41 108.26 19.17 108.62 19.83C108.98 20.47 109.47 20.98 110.09 21.36C110.73 21.72 111.45 21.9 112.25 21.9C112.79 21.9 113.31 21.8 113.81 21.6C114.33 21.4 114.81 21.14 115.25 20.82L116.54 22.89C115.92 23.31 115.22 23.65 114.44 23.91C113.68 24.17 112.93 24.3 112.19 24.3ZM127.176 24.3C126.016 24.3 124.956 24.05 123.996 23.55C123.056 23.05 122.306 22.32 121.746 21.36C121.206 20.38 120.936 19.19 120.936 17.79C120.936 16.41 121.226 15.22 121.806 14.22C122.386 13.2 123.156 12.42 124.116 11.88C125.096 11.34 126.166 11.07 127.326 11.07C128.486 11.07 129.466 11.34 130.266 11.88C131.066 12.4 131.676 13.02 132.096 13.74L131.916 14.22L132.186 11.58H134.766V24H131.976V20.76L132.276 21.48C132.196 21.68 132.016 21.94 131.736 22.26C131.476 22.56 131.116 22.87 130.656 23.19C130.216 23.51 129.706 23.78 129.126 24C128.546 24.2 127.896 24.3 127.176 24.3ZM127.926 21.99C128.626 21.99 129.256 21.86 129.816 21.6C130.376 21.34 130.836 20.98 131.196 20.52C131.576 20.04 131.836 19.47 131.976 18.81V16.38C131.816 15.78 131.536 15.26 131.136 14.82C130.736 14.36 130.256 14.01 129.696 13.77C129.136 13.51 128.516 13.38 127.836 13.38C127.096 13.38 126.416 13.56 125.796 13.92C125.176 14.28 124.676 14.78 124.296 15.42C123.936 16.06 123.756 16.81 123.756 17.67C123.756 18.47 123.946 19.2 124.326 19.86C124.706 20.52 125.216 21.04 125.856 21.42C126.496 21.8 127.186 21.99 127.926 21.99ZM142.084 11.58L142.324 14.37L142.204 14.13C142.664 13.19 143.314 12.45 144.154 11.91C145.014 11.37 145.994 11.1 147.094 11.1C147.794 11.1 148.414 11.21 148.954 11.43C149.494 11.65 149.934 11.97 150.274 12.39C150.634 12.79 150.864 13.29 150.964 13.89L150.814 13.98C151.294 13.08 151.954 12.38 152.794 11.88C153.654 11.36 154.554 11.1 155.494 11.1C156.714 11.1 157.674 11.45 158.374 12.15C159.094 12.83 159.464 13.72 159.484 14.82V24H156.694V15.81C156.674 15.17 156.514 14.64 156.214 14.22C155.934 13.78 155.434 13.54 154.714 13.5C153.994 13.5 153.344 13.72 152.764 14.16C152.204 14.6 151.764 15.17 151.444 15.87C151.124 16.55 150.954 17.29 150.934 18.09V24H148.144V15.81C148.124 15.17 147.954 14.64 147.634 14.22C147.334 13.78 146.824 13.54 146.104 13.5C145.364 13.5 144.714 13.72 144.154 14.16C143.594 14.6 143.154 15.17 142.834 15.87C142.534 16.57 142.384 17.32 142.384 18.12V24H139.594V11.58H142.084Z" fill="black"/>
</svg>
